HIERARCHY
ROOT Hips
{
	OFFSET 0.000000 0.000000 0.000000
	CHANNELS 6 Xposition Yposition Zposition Zrotation Yrotation Xrotation 
	JOINT LowerBack
	{
		OFFSET 0.000000 0.000000 0.000000
		CHANNELS 3 Zrotation Yrotation Xrotation
		JOINT Spine
		{
			OFFSET 0.028270 2.035590 -0.193380
			CHANNELS 3 Zrotation Yrotation Xrotation
			JOINT Spine1
			{
				OFFSET 0.056720 2.048850 -0.042750
				CHANNELS 3 Zrotation Yrotation Xrotation
				JOINT Neck
				{
					OFFSET 0.000000 0.000000 0.000000
					CHANNELS 3 Zrotation Yrotation Xrotation
					JOINT Neck1
					{
						OFFSET -0.054170 1.746240 0.172020
						CHANNELS 3 Zrotation Yrotation Xrotation
						JOINT Head
						{
							OFFSET 0.104070 1.761360 -0.123970
							CHANNELS 3 Zrotation Yrotation Xrotation
							End Site
							{
								OFFSET 0.000000 0.000000 0.000000
							}
						}
					}
				}
				JOINT LeftShoulder
				{
					OFFSET 0.000000 0.000000 0.000000
					CHANNELS 3 Zrotation Yrotation Xrotation
					JOINT LeftArm
					{
						OFFSET 3.362410 1.200890 -0.311210
						CHANNELS 3 Zrotation Yrotation Xrotation
						JOINT LeftForeArm
						{
							OFFSET 4.983000 -0.000000 -0.000000
							CHANNELS 3 Zrotation Yrotation Xrotation
							JOINT LeftHand
							{
								OFFSET 3.483560 -0.000000 -0.000000
								CHANNELS 3 Zrotation Yrotation Xrotation
								JOINT LeftFingerBase
								{
									OFFSET 0.000000 0.000000 0.000000
									CHANNELS 3 Zrotation Yrotation Xrotation
									JOINT LeftHandIndex1
									{
										OFFSET 0.715260 -0.000000 -0.000000
										CHANNELS 3 Zrotation Yrotation Xrotation
										End Site
										{
											OFFSET 0.000000 0.000000 0.000000
										}
									}
								}
								JOINT LThumb
								{
									OFFSET 0.000000 0.000000 0.000000
									CHANNELS 3 Zrotation Yrotation Xrotation
									End Site
									{
										OFFSET 0.000000 0.000000 0.000000
									}
								}
							}
						}
					}
				}
				JOINT RightShoulder
				{
					OFFSET 0.000000 0.000000 0.000000
					CHANNELS 3 Zrotation Yrotation Xrotation
					JOINT RightArm
					{
						OFFSET -3.136600 1.374050 -0.404650
						CHANNELS 3 Zrotation Yrotation Xrotation
						JOINT RightForeArm
						{
							OFFSET -5.241900 -0.000000 -0.000000
							CHANNELS 3 Zrotation Yrotation Xrotation
							JOINT RightHand
							{
								OFFSET -3.444170 -0.000000 -0.000000
								CHANNELS 3 Zrotation Yrotation Xrotation
								JOINT RightFingerBase
								{
									OFFSET 0.000000 0.000000 0.000000
									CHANNELS 3 Zrotation Yrotation Xrotation
									JOINT RightHandIndex1
									{
										OFFSET -0.622530 -0.000000 -0.000000
										CHANNELS 3 Zrotation Yrotation Xrotation
										End Site
										{
											OFFSET 0.000000 0.000000 0.000000
										}
									}
								}
								JOINT RThumb
								{
									OFFSET 0.000000 0.000000 0.000000
									CHANNELS 3 Zrotation Yrotation Xrotation
									End Site
									{
										OFFSET 0.000000 0.000000 0.000000
									}
								}
							}
						}
					}
				}
			}
		}
	}
}
}
MOTION
Frames: 6
Frame Time: 0.008333
2.009516 16.771841 3.153933 12.342604 -37.803129 22.796960 -12.496394 1.283259 -0.934151 -2.024918 2.221921 -3.701641 0.783037 2.153394 -3.574229 -6.612427 0.739289 -3.112043 0.469217 -0.034779 1.065351 0.000000 0.000000 0.000000 0.719612 0.524723 -6.655568 -96.763454 -52.407868 41.795383 178.024637 -67.517901 179.753966 13.509633 -16.044743 -2.068911 -0.058534 1.151820 -0.000000 0.000000 0.000000 0.000000 0.000000 0.000000 0.000000 -17.249162 8.339534 6.236919 -17.038493 22.102065 -50.452385 0.313808 2.483373 -0.046819 -12.290933 12.436949 -1.476293 0.469946 -0.708879 0.000000 0.000000 0.000000 0.000000 0.000000 0.000000 0.000000 
2.011433 16.771442 3.157160 12.184395 -38.086279 22.891642 -12.539576 1.213046 -0.984901 -2.014205 2.158097 -3.696143 0.846462 2.086115 -3.534328 -6.598721 0.540333 -3.118724 0.580730 -0.027421 1.063630 0.000000 0.000000 0.000000 0.672017 0.290875 -6.642978 -96.628936 -52.347420 41.559377 178.046653 -67.603999 179.754808 13.505416 -16.019870 -2.065087 -0.059743 1.149829 -0.000000 0.000000 0.000000 0.000000 0.000000 0.000000 0.000000 -17.852337 8.233720 6.241595 -15.864641 22.904403 -52.767732 0.151239 4.534236 -0.052315 -11.655908 12.054696 -1.359101 0.436557 -0.722549 -0.000000 0.000000 0.000000 0.000000 0.000000 0.000000 0.000000 
2.014586 16.773723 3.160247 12.001082 -38.423551 22.973522 -12.566208 1.140069 -1.038359 -2.009446 2.089314 -3.694635 0.875598 2.014860 -3.504141 -6.516023 0.353463 -3.106292 0.670023 -0.021903 1.067220 0.000000 0.000000 0.000000 0.638889 0.064287 -6.619782 -96.468326 -52.306917 41.291270 178.069796 -67.691511 179.755290 13.520749 -15.982849 -2.063155 -0.061966 1.149026 -0.000000 0.000000 0.000000 0.000000 0.000000 0.000000 0.000000 -18.308891 8.121309 6.232629 -14.729675 23.761151 -54.337822 0.038664 6.820465 -0.057550 -11.149773 11.542561 -1.247395 0.408715 -0.731398 -0.000000 0.000000 0.000000 0.000000 0.000000 0.000000 0.000000 
2.019126 16.778360 3.163212 11.789586 -38.809113 23.047658 -12.578369 1.064088 -1.097172 -2.009132 2.015799 -3.699080 0.878096 1.939819 -3.489639 -6.371787 0.211735 -3.069774 0.738904 -0.018204 1.077697 0.000000 0.000000 0.000000 0.628126 -0.161877 -6.585610 -96.291092 -52.273638 40.986334 178.091191 -67.773184 179.755324 13.556392 -15.936198 -2.063315 -0.064928 1.149383 -0.000000 0.000000 0.000000 0.000000 0.000000 0.000000 0.000000 -18.629455 8.031556 6.205976 -13.621974 24.633069 -55.268616 -0.035365 9.326892 -0.062674 -10.778933 10.988512 -1.150673 0.385859 -0.737874 -0.000000 0.000000 0.000000 0.000000 0.000000 0.000000 0.000000 
2.024938 16.785007 3.166101 11.555279 -39.237072 23.106877 -12.586375 0.984318 -1.157566 -2.017889 1.936980 -3.710443 0.845420 1.860884 -3.496109 -6.136081 0.135309 -3.002426 0.776774 -0.017144 1.096835 0.000000 0.000000 0.000000 0.669201 -0.396355 -6.542376 -96.112944 -52.233739 40.649248 178.110144 -67.852029 179.754878 13.608246 -15.884448 -2.065466 -0.068415 1.151164 -0.000000 0.000000 0.000000 0.000000 0.000000 0.000000 0.000000 -18.728042 7.972736 6.167163 -12.650438 25.485346 -55.481221 -0.065059 12.016184 -0.068319 -10.634407 10.402969 -1.077536 0.370799 -0.741325 -0.000000 0.000000 0.000000 0.000000 0.000000 0.000000 0.000000 
2.032083 16.793313 3.168836 11.298553 -39.703857 23.157210 -12.590320 0.900869 -1.221112 -2.030891 1.853659 -3.728487 0.795088 1.778270 -3.523114 -5.841844 0.118465 -2.907129 0.794922 -0.017933 1.124041 0.000000 0.000000 0.000000 0.752928 -0.636336 -6.491720 -95.942341 -52.183243 40.281380 178.123725 -67.920373 179.753938 13.674930 -15.830367 -2.069813 -0.071995 1.153985 -0.000000 0.000000 0.000000 0.000000 0.000000 0.000000 0.000000 -18.682076 7.944339 6.107600 -11.743697 26.336280 -55.322456 -0.080812 14.850488 -0.074529 -10.665609 9.907572 -1.031691 0.360245 -0.745226 -0.000000 0.000000 0.000000 0.000000 0.000000 0.000000 0.000000 
